<mxfile host="app.diagrams.net" modified="2022-11-14T09:26:06.776Z" agent="5.0 (Windows NT 10.0; Win64; x64) AppleWebKit/537.36 (KHTML, like Gecko) Chrome/107.0.0.0 Safari/537.36" etag="4kgPHORt3JgusBbuFjiK" version="20.5.3" type="github">
  <diagram id="yHTEPfWe6cZI21B-fk4s" name="Page-1">
    <mxGraphModel dx="1422" dy="762" grid="1" gridSize="10" guides="1" tooltips="1" connect="1" arrows="1" fold="1" page="1" pageScale="1" pageWidth="1654" pageHeight="1169" math="0" shadow="0">
      <root>
        <mxCell id="0" />
        <mxCell id="1" parent="0" />
        <mxCell id="TyB8VzVW9zDiWYIF4AvZ-1" value="Task" style="swimlane;fontStyle=1;align=center;verticalAlign=top;childLayout=stackLayout;horizontal=1;startSize=26;horizontalStack=0;resizeParent=1;resizeParentMax=0;resizeLast=0;collapsible=1;marginBottom=0;" vertex="1" parent="1">
          <mxGeometry x="580" y="130" width="290" height="220" as="geometry" />
        </mxCell>
        <mxCell id="TyB8VzVW9zDiWYIF4AvZ-2" value="+ id_Task : long&#xa;+ id_Project : long&#xa;+ name : String&#xa;+ creationTimestamp : Date" style="text;strokeColor=none;fillColor=none;align=left;verticalAlign=top;spacingLeft=4;spacingRight=4;overflow=hidden;rotatable=0;points=[[0,0.5],[1,0.5]];portConstraint=eastwest;" vertex="1" parent="TyB8VzVW9zDiWYIF4AvZ-1">
          <mxGeometry y="26" width="290" height="64" as="geometry" />
        </mxCell>
        <mxCell id="TyB8VzVW9zDiWYIF4AvZ-3" value="" style="line;strokeWidth=1;fillColor=none;align=left;verticalAlign=middle;spacingTop=-1;spacingLeft=3;spacingRight=3;rotatable=0;labelPosition=right;points=[];portConstraint=eastwest;strokeColor=inherit;" vertex="1" parent="TyB8VzVW9zDiWYIF4AvZ-1">
          <mxGeometry y="90" width="290" height="8" as="geometry" />
        </mxCell>
        <mxCell id="TyB8VzVW9zDiWYIF4AvZ-4" value="+ getId() : long&#xa;+ setId(id:long)&#xa;+ setProjectId(id:long)&#xa;+ getProject() : long&#xa;+ getName() : String&#xa;+ setName(name:String)&#xa;+ setCreationTimestamp( creationTimestamp Date)" style="text;strokeColor=none;fillColor=none;align=left;verticalAlign=top;spacingLeft=4;spacingRight=4;overflow=hidden;rotatable=0;points=[[0,0.5],[1,0.5]];portConstraint=eastwest;" vertex="1" parent="TyB8VzVW9zDiWYIF4AvZ-1">
          <mxGeometry y="98" width="290" height="122" as="geometry" />
        </mxCell>
      </root>
    </mxGraphModel>
  </diagram>
</mxfile>
